2.2Hzlow3min_grf.mot
version=1
nRows=15
nColumns 19
inDegrees=yes
endheader
time	1_ground_force_vx	1_ground_force_vy	1_ground_force_vz	1_ground_force_px	1_ground_force_py	1_ground_force_pz	1_ground_torque_x	1_ground_torque_y	1_ground_torque_z	2_ground_force_vx	2_ground_force_vy	2_ground_force_vz	2_ground_force_px	2_ground_force_py	2_ground_force_pz	2_ground_torque_x	2_ground_torque_y	2_ground_torque_z
            0.005000	           33.211703	          269.179680	           -7.457768	           -0.237013	            0.006221	           -0.405006	           -0.069261	           -0.561354	            0.015553	           89.550206	          333.238543	            9.361785	           -0.265775	            0.005378	           -0.656776	            0.294432	            1.095654	            0.030781
            0.005500	           33.666349	          272.430055	           -8.728958	           -0.237025	            0.006219	           -0.404665	           -0.051431	           -0.416185	            0.013335	           88.732866	          339.125401	           10.227856	           -0.265358	            0.005380	           -0.656728	            0.263999	            1.008968	            0.030430
            0.006000	           33.570513	          275.861150	          -10.135578	           -0.237257	            0.006218	           -0.404334	            0.019279	            0.158423	           -0.005821	           87.022556	          345.747008	           10.721508	           -0.265497	            0.005381	           -0.657301	            0.280456	            1.114274	            0.034553
            0.006500	           32.650880	          279.830356	          -10.941704	           -0.237616	            0.006214	           -0.403463	            0.062630	            0.536761	           -0.020988	           84.983839	          352.549669	           11.732166	           -0.264698	            0.005386	           -0.657840	            0.259283	            1.075616	            0.035794
            0.007000	           31.824978	          283.796042	          -10.922650	           -0.237497	            0.006213	           -0.403286	            0.049809	            0.444171	           -0.017095	           83.179284	          359.354074	           12.508084	           -0.264493	            0.005387	           -0.657957	            0.213537	            0.922530	            0.032111
            0.007500	           31.412287	          288.121159	          -10.627940	           -0.237625	            0.006215	           -0.403723	            0.002979	            0.027327	           -0.001008	           80.906687	          365.974259	           12.814264	           -0.263968	            0.005388	           -0.657620	            0.223898	            1.012784	            0.035462
            0.008000	           31.961675	          292.087110	          -10.612300	           -0.238155	            0.006217	           -0.404252	           -0.065439	           -0.598027	            0.021728	           79.101159	          372.965315	           12.886917	           -0.263622	            0.005388	           -0.657278	            0.211807	            0.998677	            0.034507
            0.008500	           33.334842	          297.497312	          -11.051084	           -0.238209	            0.006218	           -0.404314	           -0.082827	           -0.739190	            0.027459	           76.723683	          382.714733	           13.485875	           -0.263238	            0.005393	           -0.658291	            0.248925	            1.241695	            0.043754
            0.009000	           33.973197	          303.270066	          -11.990916	           -0.238470	            0.006215	           -0.403690	           -0.038329	           -0.342158	            0.013528	           74.305405	          390.806091	           14.219723	           -0.262936	            0.005393	           -0.658165	            0.235033	            1.236145	            0.044978
            0.009500	           34.289635	          309.044528	          -13.342655	           -0.238592	            0.006213	           -0.403338	            0.040817	            0.367877	           -0.015883	           71.794644	          398.708512	           16.220013	           -0.262370	            0.005395	           -0.658085	            0.191862	            1.065500	            0.043346
            0.010000	           33.505492	          314.819367	          -14.829231	           -0.238663	            0.006213	           -0.403163	            0.074413	            0.699187	           -0.032934	           69.325843	          407.902095	           17.661745	           -0.261821	            0.005399	           -0.658498	            0.156639	            0.921639	            0.039906
            0.010500	           32.723758	          319.869211	          -15.401781	           -0.238754	            0.006215	           -0.403639	            0.063679	            0.622456	           -0.029971	           66.482268	          417.093991	           19.197493	           -0.261805	            0.005399	           -0.658703	            0.143716	            0.901639	            0.041500
            0.011000	           31.805175	          327.440782	          -15.504608	           -0.238928	            0.006213	           -0.403210	           -0.013917	           -0.143281	            0.006784	           63.872570	          426.289912	           19.841507	           -0.260987	            0.005401	           -0.658370	            0.130929	            0.873826	            0.040672
            0.011500	           31.711343	          334.833063	          -15.793681	           -0.239076	            0.006213	           -0.403171	           -0.068852	           -0.726996	            0.034292	           61.493723	          436.407946	           20.347923	           -0.260988	            0.005401	           -0.658471	            0.152016	            1.078822	            0.050301
            0.012000	           32.213702	          340.963570	          -16.089643	           -0.239588	            0.006214	           -0.403547	           -0.077803	           -0.823501	            0.038860	           58.787799	          446.338981	           21.323102	           -0.260488	            0.005404	           -0.658658	            0.156882	            1.191108	            0.056903
